HIERARCHY
ROOT Hips
{
 OFFSET 0.000000 0.000000 0.000000
 CHANNELS 6 Xposition Yposition Zposition Yrotation Xrotation Zrotation
 JOINT Chest
 {
  OFFSET 0.000000 9.857222 0.000240
  CHANNELS 3 Yrotation Xrotation Zrotation
  JOINT Chest2
  {
   OFFSET 0.000000 10.876940 -0.000436
   CHANNELS 3 Yrotation Xrotation Zrotation
   JOINT Chest3
   {
    OFFSET 0.000000 9.827798 0.000000
    CHANNELS 3 Yrotation Xrotation Zrotation
    JOINT Chest4
    {
     OFFSET 0.000000 9.827798 0.000000
     CHANNELS 3 Yrotation Xrotation Zrotation
     JOINT Neck
     {
      OFFSET 0.000000 13.831992 0.000000
      CHANNELS 3 Yrotation Xrotation Zrotation
      JOINT Head
      {
       OFFSET 0.000000 9.147643 -0.001036
       CHANNELS 3 Yrotation Xrotation Zrotation
       End Site
       {
        OFFSET 0.000000 17.515799 -0.000541
       }
      }
     }
     JOINT RightCollar
     {
      OFFSET -3.001579 7.717577 0.000000
      CHANNELS 3 Yrotation Xrotation Zrotation
      JOINT RightShoulder
      {
       OFFSET -14.002642 0.000000 0.000000
       CHANNELS 3 Yrotation Xrotation Zrotation
       JOINT RightElbow
       {
        OFFSET -30.053852 0.000000 0.000000
        CHANNELS 3 Yrotation Xrotation Zrotation
        JOINT RightWrist
        {
         OFFSET -24.564923 0.000000 -0.000000
         CHANNELS 3 Yrotation Xrotation Zrotation
         End Site
         {
          OFFSET -18.334355 0.000000 0.000000
         }
        }
       }
      }
     }
     JOINT LeftCollar
     {
      OFFSET 3.001579 7.717577 0.000000
      CHANNELS 3 Yrotation Xrotation Zrotation
      JOINT LeftShoulder
      {
       OFFSET 14.002642 0.000000 0.000000
       CHANNELS 3 Yrotation Xrotation Zrotation
       JOINT LeftElbow
       {
        OFFSET 30.053852 0.000000 0.000000
        CHANNELS 3 Yrotation Xrotation Zrotation
        JOINT LeftWrist
        {
         OFFSET 24.564923 0.000000 -0.000000
         CHANNELS 3 Yrotation Xrotation Zrotation
         End Site
         {
          OFFSET 18.334355 0.000000 0.000000
         }
        }
       }
      }
     }
    }
   }
  }
 }
 JOINT RightHip
 {
  OFFSET -8.003235 -0.001175 -0.000120
  CHANNELS 3 Yrotation Xrotation Zrotation
  JOINT RightKnee
  {
   OFFSET 0.000000 -41.759727 0.000113
   CHANNELS 3 Yrotation Xrotation Zrotation
   JOINT RightAnkle
   {
    OFFSET 0.000000 -40.728748 0.000159
    CHANNELS 3 Yrotation Xrotation Zrotation
    JOINT RightToe
    {
     OFFSET 0.000000 -6.515296 14.732841
     CHANNELS 3 Yrotation Xrotation Zrotation
     End Site
     {
      OFFSET 0.000000 -1.502839 6.412115
     }
    }
   }
  }
 }
 JOINT LeftHip
 {
  OFFSET 8.003235 -0.001175 -0.000120
  CHANNELS 3 Yrotation Xrotation Zrotation
  JOINT LeftKnee
  {
   OFFSET 0.000000 -41.759727 0.000113
   CHANNELS 3 Yrotation Xrotation Zrotation
   JOINT LeftAnkle
   {
    OFFSET 0.000000 -40.728748 0.000159
    CHANNELS 3 Yrotation Xrotation Zrotation
    JOINT LeftToe
    {
     OFFSET 0.000000 -6.515296 14.732841
     CHANNELS 3 Yrotation Xrotation Zrotation
     End Site
     {
      OFFSET 0.000000 -1.502839 6.412115
     }
    }
   }
  }
 }
}
MOTION
Frames: 12
Frame Time: 0.016667
0.000000 88.822259 0.000000 0.000000 -5.826342 0.000000 0.000000 11.116423 0.000000 0.000000 -5.290081 0.000000 0.000000 0.000000 0.000000 0.000000 0.000000 0.000000 0.000000 12.665069 0.000000 0.000000 0.575450 0.000000 0.000000 0.000000 0.000000 0.000000 0.000000 0.000000 2.337306 0.000000 0.000000 -2.337306 0.000000 0.000000 0.000000 0.000000 0.000000 0.000000 0.000000 0.000000 -2.337306 0.000000 0.000000 2.337306 0.000000 0.000000 0.000000 8.578828 0.000000 0.000000 1.905768 0.000000 0.000000 -4.658254 0.000000 0.000000 0.000000 0.000000 0.000000 8.578828 0.000000 0.000000 1.905768 0.000000 0.000000 -4.658254 0.000000 0.000000 0.000000 0.000000
1.747535 90.393443 14.513341 -36.027191 -6.513943 0.034332 2.625115 -4.425794 -0.612879 1.367539 -1.766445 -0.154002 1.367539 -1.766445 -0.154002 1.025127 -1.325186 -0.111539 -3.535271 25.638700 -0.660976 -6.163859 11.460309 -0.358751 1.861276 23.415957 12.297405 27.103075 -0.994907 74.049744 24.931629 4.374155 5.891978 -4.282048 8.205961 -3.820401 -21.656237 25.280541 -21.552417 -34.462432 21.258349 -72.725470 -41.802470 -13.882508 11.126470 10.115700 -2.007478 7.338125 -7.019707 8.596450 -1.558308 9.096338 4.799567 -0.651939 0.002540 -6.024368 0.726603 0.026468 0.189518 -0.034370 -24.078941 20.370021 -3.517647 22.860667 -4.308000 -9.550320 2.808071 -8.779812 3.952571 -0.164838 -0.101758 -0.114911
1.749625 90.398548 14.498027 -35.943652 -6.542128 0.047857 2.594921 -4.398205 -0.604298 1.357462 -1.748977 -0.150566 1.357462 -1.748977 -0.150566 1.017586 -1.312075 -0.109030 -3.530439 25.638286 -0.644489 -6.159072 11.460146 -0.330411 1.861760 23.430386 12.295440 27.104051 -1.082399 74.013729 24.912795 4.383301 5.871195 -4.284519 8.206085 -3.838788 -21.643854 25.249876 -21.545819 -34.403963 21.176933 -72.794531 -41.437542 -14.372417 11.023501 10.110110 -2.007341 7.302548 -7.100726 8.614572 -1.584051 9.088891 4.807684 -0.642285 -0.002411 -6.011872 0.739883 0.024669 0.176991 -0.042138 -24.113331 20.358210 -3.527981 22.861747 -4.276631 -9.527329 2.771894 -8.763691 3.936146 -0.148937 -0.106901 -0.108365
1.756019 90.404304 14.483140 -35.842920 -6.578428 0.067312 2.557323 -4.363117 -0.599174 1.343604 -1.729121 -0.150222 1.343604 -1.729121 -0.150222 1.007201 -1.297178 -0.108856 -3.524976 25.634769 -0.628662 -6.153028 11.454180 -0.303266 1.853483 23.435687 12.285924 27.117818 -1.160847 73.974522 24.914200 4.363944 5.823093 -4.285236 8.207187 -3.863918 -21.639572 25.214272 -21.537970 -34.358065 21.129033 -72.846719 -41.103076 -14.890842 10.929046 10.096502 -2.016316 7.262050 -7.210307 8.637403 -1.628111 9.074201 4.823504 -0.627683 0.025565 -6.006631 0.765986 0.021727 0.164761 -0.058964 -24.217063 20.339012 -3.561410 22.900972 -4.238499 -9.505152 2.738764 -8.745970 3.917746 -0.130717 -0.111846 -0.099059
1.763074 90.410442 14.471024 -35.732330 -6.609325 0.080471 2.517854 -4.328116 -0.584233 1.327675 -1.711892 -0.152704 1.327675 -1.711892 -0.152704 0.995255 -1.284258 -0.110800 -3.520287 25.632758 -0.615905 -6.147641 11.450893 -0.281487 1.846867 23.443630 12.280299 27.142014 -1.232145 73.919798 24.924460 4.317849 5.768946 -4.293505 8.209618 -3.896938 -21.633722 25.187077 -21.525512 -34.323504 21.098001 -72.885939 -40.793029 -15.387909 10.839181 10.053408 -2.046868 7.208872 -7.345088 8.656571 -1.677594 9.028034 4.832797 -0.595846 0.061944 -5.996358 0.798728 0.016014 0.152128 -0.084910 -24.223663 20.330629 -3.556243 22.863391 -4.209527 -9.483174 2.700259 -8.727843 3.885712 -0.090617 -0.115300 -0.079001
1.778352 90.417690 14.465060 -35.604713 -6.640558 0.109069 2.477340 -4.286941 -0.580372 1.308667 -1.694891 -0.158346 1.308667 -1.694891 -0.158346 0.980989 -1.271514 -0.115121 -3.517610 25.630078 -0.609072 -6.144474 11.446152 -0.269793 1.840402 23.444136 12.274912 27.168778 -1.297188 73.857618 24.933756 4.268694 5.702027 -4.297674 8.209679 -3.922611 -21.632070 25.160495 -21.511286 -34.268847 21.077381 -72.898526 -40.520561 -15.802624 10.748741 9.999511 -2.121184 7.175907 -7.515775 8.677435 -1.769746 8.947161 4.832788 -0.540562 0.110159 -5.986031 0.851371 0.010378 0.142676 -0.123324 -24.247287 20.304294 -3.573248 22.842892 -4.165159 -9.449831 2.618300 -8.710982 3.860061 -0.066805 -0.120456 -0.065095
1.800297 90.425556 14.457126 -35.447942 -6.637665 0.135307 2.430523 -4.265825 -0.572063 1.287861 -1.685343 -0.167353 1.287861 -1.685343 -0.167353 0.965365 -1.264367 -0.121954 -3.519186 25.633221 -0.609195 -6.147235 11.452021 -0.269779 1.829869 23.460440 12.273212 27.185378 -1.373097 73.782866 24.930260 4.227901 5.641247 -4.299726 8.211958 -3.960733 -21.639879 25.150303 -21.499788 -34.223737 21.074304 -72.884369 -40.283419 -16.167664 10.685270 9.932717 -2.197747 7.129713 -7.747618 8.667278 -1.875244 8.846913 4.817179 -0.469839 0.180132 -5.966458 0.915296 0.003263 0.135187 -0.167847 -24.312678 20.228537 -3.589324 22.861972 -4.103915 -9.402304 2.530483 -8.705757 3.818794 -0.015542 -0.116065 -0.041661
1.827470 90.433530 14.454164 -35.294987 -6.663242 0.162284 2.403290 -4.219028 -0.561784 1.267302 -1.674174 -0.175596 1.267302 -1.674174 -0.175596 0.949928 -1.256001 -0.128216 -3.523230 25.639343 -0.614485 -6.153176 11.463255 -0.278545 1.818523 23.472816 12.269447 27.183433 -1.456734 73.706427 24.905053 4.196606 5.579369 -4.295894 8.210743 -4.004565 -21.645795 25.138854 -21.484825 -34.211537 21.094463 -72.852349 -40.106391 -16.548021 10.653999 9.872821 -2.223921 7.067490 -7.991696 8.691133 -1.995836 8.809876 4.787801 -0.393550 0.193861 -5.941404 0.992847 -0.003031 0.130023 -0.209383 -24.286262 20.186458 -3.595103 22.840245 -4.041206 -9.360401 2.448774 -8.706987 3.789192 0.021389 -0.108688 -0.028093
1.850945 90.442105 14.451670 -35.151448 -6.716304 0.174917 2.392085 -4.149475 -0.537574 1.250680 -1.655739 -0.179794 1.250680 -1.655739 -0.179794 0.937458 -1.242178 -0.131448 -3.530145 25.644389 -0.624190 -6.163229 11.472371 -0.294486 1.807707 23.474414 12.260860 27.180456 -1.560232 73.643932 24.842930 4.163263 5.491405 -4.292584 8.213466 -4.055677 -21.645635 25.113058 -21.465589 -34.221086 21.126392 -72.804111 -39.937194 -16.862289 10.613135 9.819168 -2.265837 7.016326 -8.213461 8.749453 -2.089427 8.849850 4.752930 -0.339935 0.150356 -5.906769 1.077095 -0.006734 0.118701 -0.238806 -24.192310 20.183467 -3.567796 22.821968 -3.959895 -9.325725 2.231789 -8.715353 3.764068 0.069916 -0.097341 -0.013477
1.848571 90.453201 14.457995 -35.137897 -6.892158 0.161427 2.506886 -3.949707 -0.472812 1.241938 -1.636934 -0.179581 1.241938 -1.636934 -0.179581 0.930909 -1.228072 -0.131350 -3.540116 25.652801 -0.636539 -6.178098 11.487695 -0.314583 1.794241 23.464015 12.251273 27.187807 -1.670230 73.594165 24.737030 4.102514 5.381754 -4.288825 8.219682 -4.104825 -21.642710 25.073868 -21.442956 -34.217094 21.152777 -72.733432 -39.764843 -17.128864 10.571203 9.777498 -2.292528 6.968977 -8.278887 8.945058 -2.127542 8.934564 4.711358 -0.324018 0.084722 -5.848164 1.159428 -0.010197 0.085641 -0.254491 -23.950068 20.335962 -3.569918 22.829131 -3.875658 -9.298703 2.137880 -8.756306 3.748128 0.076789 -0.092259 -0.017717
1.864458 90.460003 14.448164 -35.000793 -6.912234 0.175882 2.510640 -3.889677 -0.460023 1.236266 -1.618329 -0.174815 1.236266 -1.618329 -0.174815 0.926675 -1.214106 -0.127829 -3.548569 25.668743 -0.654359 -6.188922 11.516709 -0.345115 1.786226 23.455955 12.239567 27.215426 -1.794651 73.546084 24.586321 4.008595 5.244918 -4.282876 8.222048 -4.141157 -21.639389 25.034982 -21.425278 -34.180809 21.153093 -72.627381 -39.593730 -17.341100 10.525112 9.756084 -2.303268 6.929675 -8.459690 8.970822 -2.187777 9.003813 4.683674 -0.310000 0.068631 -5.823421 1.230060 -0.009087 0.080259 -0.256637 -23.791358 20.288764 -3.529368 22.797948 -3.775273 -9.238375 2.074285 -8.789308 3.710288 0.084255 -0.073231 -0.021051
1.878019 90.467196 14.448451 -34.893544 -6.981392 0.190116 2.558750 -3.780530 -0.437189 1.231340 -1.598388 -0.169187 1.231340 -1.598388 -0.169187 0.923003 -1.199138 -0.123661 -3.555833 25.696750 -0.677691 -6.196250 11.567837 -0.386269 1.786115 23.456389 12.233991 27.274270 -1.915131 73.482799 24.401257 3.855507 5.092791 -4.284412 8.228125 -4.171635 -21.636625 25.005858 -21.408160 -34.112069 21.121894 -72.486820 -39.414289 -17.493264 10.458197 9.754347 -2.321697 6.908500 -8.600560 9.042832 -2.252262 8.985968 4.667076 -0.291321 0.095251 -5.796708 1.294562 -0.009345 0.064319 -0.257005 -23.661289 20.271773 -3.537318 22.769153 -3.656870 -9.148544 2.001488 -8.834078 3.679713 0.072621 -0.057017 -0.031364
